<?xml version="1.0" standalone="no"?>
<!DOCTYPE svg PUBLIC "-//W3C//DTD SVG 20010904//EN"
 "http://www.w3.org/TR/2001/REC-SVG-20010904/DTD/svg10.dtd">
<svg version="1.0" xmlns="http://www.w3.org/2000/svg"
 width="1600.000000pt" height="1600.000000pt" viewBox="0 0 1600.000000 1600.000000"
 preserveAspectRatio="xMidYMid meet">
<metadata>
Created by potrace 1.11, written by Peter Selinger 2001-2013
</metadata>
<g transform="translate(0.000000,1600.000000) scale(0.100000,-0.100000)"
fill="#000000" stroke="none">
<path d="M8777 14664 c-1 -1 -65 -5 -141 -9 -76 -3 -157 -8 -180 -10 -23 -2
-72 -6 -111 -10 -220 -19 -536 -73 -816 -139 -193 -47 -516 -152 -674 -221
-16 -7 -55 -23 -85 -35 -104 -41 -387 -187 -516 -266 -133 -80 -206 -129 -334
-222 -526 -385 -981 -929 -1297 -1552 -58 -114 -131 -270 -151 -318 -2 -8 42
18 99 56 486 325 1148 582 1844 717 126 25 302 51 430 65 55 6 118 13 140 15
284 32 945 32 1137 0 12 -2 63 -7 113 -10 49 -4 92 -8 95 -10 3 -1 34 -6 70
-10 36 -4 67 -9 70 -10 3 -2 35 -6 70 -10 83 -8 96 -20 22 -21 -74 0 -293 -13
-322 -19 -12 -2 -51 -7 -88 -11 -36 -3 -74 -7 -83 -9 -10 -2 -39 -6 -66 -10
-39 -5 -327 -58 -383 -70 -70 -15 -248 -60 -305 -76 -38 -11 -95 -27 -125 -35
-98 -28 -342 -111 -485 -164 -282 -105 -764 -329 -962 -446 -41 -24 -76 -44
-79 -44 -13 0 -414 -252 -494 -311 -19 -14 -78 -57 -130 -95 -164 -120 -330
-262 -481 -413 -333 -334 -494 -600 -524 -866 -4 -33 -9 -67 -10 -76 -26 -138
-26 -1201 -1 -1424 2 -16 7 -69 10 -116 4 -47 9 -97 11 -110 2 -13 6 -55 9
-94 4 -38 8 -81 10 -95 3 -14 7 -50 10 -80 4 -30 8 -66 10 -80 5 -32 18 -119
21 -145 5 -37 21 -132 36 -220 6 -33 13 -71 15 -85 3 -14 7 -32 9 -40 2 -8 7
-31 10 -50 9 -52 29 -146 70 -320 20 -85 38 -166 41 -180 3 -14 7 -33 10 -42
3 -10 7 -30 10 -45 3 -16 9 -44 14 -63 9 -36 12 -49 29 -130 35 -167 169 -664
223 -830 51 -155 124 -354 170 -465 28 -66 65 -165 83 -220 33 -103 68 -184
134 -315 40 -79 43 -86 85 -165 15 -27 72 -142 127 -255 186 -381 261 -526
325 -627 305 -480 534 -806 679 -967 6 -6 23 -27 39 -46 248 -303 649 -663
986 -887 94 -63 345 -213 355 -213 2 0 49 -22 103 -48 270 -133 637 -250 897
-287 23 -3 50 -7 61 -9 181 -35 530 -40 829 -11 39 3 77 8 85 10 8 2 35 7 60
10 85 12 285 55 390 85 392 112 792 309 1136 560 61 45 231 177 250 195 6 5
37 33 70 60 76 64 371 360 449 449 487 560 880 1200 1222 1991 57 132 94 223
200 495 75 193 298 907 287 919 -2 2 -12 -3 -21 -11 -20 -16 -200 -128 -207
-128 -3 0 -21 -11 -40 -24 -49 -33 -404 -208 -523 -257 -260 -108 -517 -197
-740 -255 -29 -8 -79 -21 -110 -29 -100 -27 -348 -80 -423 -91 -19 -3 -46 -7
-60 -10 -56 -10 -67 -12 -115 -18 -27 -4 -63 -9 -80 -12 -30 -5 -53 -8 -155
-18 -30 -3 -75 -8 -100 -11 -72 -8 -206 -16 -320 -20 -306 -11 -581 -4 -825
20 -27 3 -76 7 -108 10 -69 6 -134 14 -162 19 -12 2 -65 10 -118 17 -53 7 -97
15 -97 19 0 3 26 6 58 6 103 2 293 15 402 29 25 3 65 8 90 11 25 3 56 7 70 10
14 2 54 9 90 14 481 76 1169 286 1635 499 33 16 98 45 145 67 507 230 1078
595 1440 919 79 71 224 218 291 295 63 72 209 264 209 275 0 3 11 22 24 43 27
41 56 173 86 397 6 44 12 91 14 105 5 28 17 155 31 319 27 321 27 1432 1 1636
-3 17 -7 68 -10 115 -4 47 -8 96 -10 110 -3 14 -7 52 -11 85 -4 32 -8 67 -10
77 -2 9 -6 41 -10 70 -10 88 -12 99 -35 223 -45 247 -119 562 -170 720 -56
173 -71 218 -104 307 -33 90 -70 183 -100 253 -8 17 -26 59 -42 95 -51 116
-175 352 -252 480 -269 447 -594 824 -978 1136 -100 81 -248 192 -292 219 -10
6 -49 31 -88 56 -381 249 -875 461 -1364 585 -193 50 -459 102 -610 120 -19 2
-51 6 -70 9 -67 9 -160 19 -275 30 -152 14 -757 29 -768 19z m623 -4008 c80
-5 152 -10 160 -11 8 -2 49 -6 90 -10 164 -14 467 -57 540 -75 19 -5 49 -11
65 -13 132 -21 466 -112 639 -173 343 -122 654 -281 901 -458 39 -28 72 -53
75 -56 3 -3 44 -38 92 -78 346 -291 582 -675 667 -1087 26 -124 34 -210 35
-345 0 -100 -9 -231 -18 -276 -2 -12 -7 -39 -10 -59 -12 -72 -46 -193 -80
-282 -109 -287 -289 -531 -526 -715 -41 -32 -80 -62 -87 -68 -7 -5 -15 -10
-17 -10 -3 0 -29 -15 -58 -33 -49 -32 -117 -66 -228 -115 -99 -44 -287 -93
-406 -107 -27 -3 -60 -8 -74 -10 -28 -6 -256 -6 -310 -1 -160 14 -329 51 -484
106 -86 30 -204 80 -236 99 -8 5 -53 29 -100 53 -76 38 -123 64 -257 139 -85
48 -261 137 -313 158 -30 12 -64 26 -75 31 -29 13 -153 48 -200 56 -56 10
-310 11 -370 1 -121 -21 -379 -126 -545 -223 -317 -184 -632 -327 -820 -371
-184 -43 -233 -48 -450 -48 -204 0 -248 5 -395 40 -417 101 -761 339 -988 685
-267 405 -344 861 -231 1369 32 146 149 410 245 556 125 189 301 379 483 520
21 17 44 35 50 40 14 13 38 30 146 101 180 120 406 237 615 319 66 25 129 50
140 55 80 35 515 157 625 175 19 3 62 12 95 20 58 13 232 42 305 51 19 2 55 6
80 10 78 10 93 12 165 19 113 11 153 13 290 21 72 3 131 7 132 8 6 5 521 -2
643 -8z"/>
<path d="M7338 9335 c-2 -1 -34 -5 -73 -8 -267 -20 -507 -226 -576 -495 -18
-70 -26 -204 -16 -257 3 -11 7 -36 11 -56 25 -137 143 -314 266 -396 121 -82
224 -115 363 -119 394 -10 701 303 683 696 -15 309 -240 567 -542 619 -90 15
-113 19 -116 16z"/>
<path d="M10668 9336 c-1 -2 -34 -6 -73 -10 -280 -24 -522 -243 -581 -526 -24
-116 -10 -264 38 -390 55 -147 215 -303 373 -364 111 -43 283 -55 399 -27 62
15 183 71 233 107 132 97 235 258 263 414 40 220 -24 432 -180 589 -114 116
-248 184 -390 197 -30 3 -60 7 -67 9 -6 2 -13 2 -15 1z"/>
<path d="M3540 6990 c-25 -5 -88 -22 -140 -40 -395 -130 -799 -474 -1113 -950
-42 -63 -107 -160 -144 -214 -253 -370 -443 -824 -612 -1456 -11 -41 -22 -86
-25 -100 -3 -14 -21 -95 -41 -180 -19 -85 -37 -164 -39 -175 -4 -19 -34 -179
-42 -220 -2 -11 -6 -31 -9 -45 -3 -14 -7 -41 -9 -60 -3 -19 -7 -48 -10 -65 -3
-16 -8 -50 -11 -75 -4 -25 -7 -49 -8 -55 -3 -14 38 -10 103 9 30 10 60 18 65
20 6 2 17 6 25 9 8 3 53 18 100 32 321 102 710 255 1005 395 72 34 159 75 194
91 383 174 828 539 1105 904 37 49 196 361 196 384 0 6 -24 85 -54 174 -203
611 -347 1093 -427 1424 -48 202 -49 203 -57 202 -4 -1 -27 -5 -52 -9z"/>
<path d="M4345 4458 c-27 -39 -95 -128 -150 -198 -55 -70 -126 -163 -157 -207
-96 -132 -275 -304 -454 -436 -180 -134 -340 -228 -634 -376 -113 -56 -208
-105 -211 -109 -6 -7 -9 -37 -25 -232 -3 -41 -7 -93 -9 -115 -2 -22 -7 -94
-10 -160 -4 -66 -9 -142 -11 -170 -2 -27 -6 -165 -9 -305 -4 -140 -8 -261 -10
-267 -3 -7 -1 -13 3 -13 35 0 759 416 770 442 2 4 8 8 14 8 8 0 69 40 253 168
491 342 903 746 1110 1090 l52 87 -29 54 c-33 61 -54 97 -214 376 -60 105
-134 242 -163 305 -30 63 -57 118 -60 122 -3 3 -28 -26 -56 -64z"/>
</g>
</svg>
